<?xml version="1.0" encoding="UTF-8"?>
<svg version="1.1" xmlns="http://www.w3.org/2000/svg" width="100" height="100">
<path d="M0 0 C3.03910115 1.19462234 4.70932414 2.66984132 7.03274536 4.9649353 C7.89648773 5.80961365 8.7602301 6.65429199 9.65014648 7.52456665 C10.56804962 8.4442926 11.48595276 9.36401855 12.43167114 10.31161499 C13.39055325 11.26271998 14.34988009 12.2133768 15.30963135 13.16360474 C17.3151905 15.15426382 19.31285187 17.15246716 21.30569458 19.15585327 C23.86137556 21.72314866 26.43912103 24.26693923 29.02366447 26.80513382 C31.00895299 28.76097971 32.98023609 30.73048223 34.9477272 32.704216 C36.35222015 34.10718242 37.76980164 35.49700618 39.1875 36.8866272 C40.45474411 38.17255768 40.45474411 38.17255768 41.74758911 39.48446655 C42.49861908 40.23423767 43.24964905 40.98400879 44.0234375 41.75650024 C45.50198364 43.98348999 45.50198364 43.98348999 45.32745361 46.63626099 C43.87596016 50.76359166 40.99386771 53.44258711 37.50198364 55.98348999 C34.87698364 56.23348999 34.87698364 56.23348999 32.50198364 54.98348999 C29.68948364 52.42098999 29.68948364 52.42098999 27.50198364 49.98348999 C24.89780653 51.0995659 23.47077162 52.01872937 21.56448364 54.17098999 C19.50198364 55.98348999 19.50198364 55.98348999 17.06448364 56.04598999 C13.74852416 54.67107996 11.87886944 52.63201988 9.50198364 49.98348999 C6.89780653 51.0995659 5.47077162 52.01872937 3.56448364 54.17098999 C1.50198364 55.98348999 1.50198364 55.98348999 -0.93551636 56.04598999 C-4.25147584 54.67107996 -6.12113056 52.63201988 -8.49801636 49.98348999 C-11.10219347 51.0995659 -12.52922838 52.01872937 -14.43551636 54.17098999 C-16.49801636 55.98348999 -16.49801636 55.98348999 -18.93551636 56.04598999 C-22.25147584 54.67107996 -24.12113056 52.63201988 -26.49801636 49.98348999 C-29.10219347 51.0995659 -30.52922838 52.01872937 -32.43551636 54.17098999 C-34.49801636 55.98348999 -34.49801636 55.98348999 -36.81051636 56.17098999 C-40.80150321 54.40753068 -44.14827653 51.69053295 -46.49801636 47.98348999 C-46.17293558 43.5732811 -44.57105119 41.54490839 -41.51657104 38.45272827 C-40.6718927 37.5889859 -39.82721436 36.72524353 -38.9569397 35.83532715 C-38.03721375 34.91742401 -37.11748779 33.99952087 -36.16989136 33.05380249 C-35.21878637 32.09492038 -34.26812954 31.13559355 -33.31790161 30.17584229 C-31.32724253 28.17028313 -29.32903919 26.17262176 -27.32565308 24.17977905 C-24.75835768 21.62409808 -22.21456712 19.0463526 -19.67637253 16.46180916 C-17.72052664 14.47652064 -15.75102412 12.50523754 -13.77729034 10.53774643 C-12.37432393 9.13325348 -10.98450017 7.71567199 -9.59487915 6.29797363 C-8.73759216 5.45314423 -7.88030518 4.60831482 -6.99703979 3.73788452 C-6.24726868 2.98685455 -5.49749756 2.23582458 -4.7250061 1.46203613 C-2.49801636 -0.01651001 -2.49801636 -0.01651001 0 0 Z " fill="#535957" transform="translate(50.498016357421875,16.016510009765625)"/>
<path d="M0 0 C3.03910115 1.19462234 4.70932414 2.66984132 7.03274536 4.9649353 C7.89648773 5.80961365 8.7602301 6.65429199 9.65014648 7.52456665 C10.56804962 8.4442926 11.48595276 9.36401855 12.43167114 10.31161499 C13.39055325 11.26271998 14.34988009 12.2133768 15.30963135 13.16360474 C17.3151905 15.15426382 19.31285187 17.15246716 21.30569458 19.15585327 C23.86137556 21.72314866 26.43912103 24.26693923 29.02366447 26.80513382 C31.00895299 28.76097971 32.98023609 30.73048223 34.9477272 32.704216 C36.35222015 34.10718242 37.76980164 35.49700618 39.1875 36.8866272 C40.45474411 38.17255768 40.45474411 38.17255768 41.74758911 39.48446655 C42.49861908 40.23423767 43.24964905 40.98400879 44.0234375 41.75650024 C45.50198364 43.98348999 45.50198364 43.98348999 45.32745361 46.63626099 C43.87596016 50.76359166 40.99386771 53.44258711 37.50198364 55.98348999 C34.87698364 56.23348999 34.87698364 56.23348999 32.50198364 54.98348999 C29.68948364 52.42098999 29.68948364 52.42098999 27.50198364 49.98348999 C24.89780653 51.0995659 23.47077162 52.01872937 21.56448364 54.17098999 C19.50198364 55.98348999 19.50198364 55.98348999 17.06448364 56.04598999 C13.74852416 54.67107996 11.87886944 52.63201988 9.50198364 49.98348999 C6.89780653 51.0995659 5.47077162 52.01872937 3.56448364 54.17098999 C1.50198364 55.98348999 1.50198364 55.98348999 -0.93551636 56.04598999 C-4.25147584 54.67107996 -6.12113056 52.63201988 -8.49801636 49.98348999 C-11.10219347 51.0995659 -12.52922838 52.01872937 -14.43551636 54.17098999 C-16.49801636 55.98348999 -16.49801636 55.98348999 -18.93551636 56.04598999 C-22.25147584 54.67107996 -24.12113056 52.63201988 -26.49801636 49.98348999 C-29.10219347 51.0995659 -30.52922838 52.01872937 -32.43551636 54.17098999 C-34.49801636 55.98348999 -34.49801636 55.98348999 -36.81051636 56.17098999 C-40.80150321 54.40753068 -44.14827653 51.69053295 -46.49801636 47.98348999 C-46.17293558 43.5732811 -44.57105119 41.54490839 -41.51657104 38.45272827 C-40.6718927 37.5889859 -39.82721436 36.72524353 -38.9569397 35.83532715 C-38.03721375 34.91742401 -37.11748779 33.99952087 -36.16989136 33.05380249 C-35.21878637 32.09492038 -34.26812954 31.13559355 -33.31790161 30.17584229 C-31.32724253 28.17028313 -29.32903919 26.17262176 -27.32565308 24.17977905 C-24.75835768 21.62409808 -22.21456712 19.0463526 -19.67637253 16.46180916 C-17.72052664 14.47652064 -15.75102412 12.50523754 -13.77729034 10.53774643 C-12.37432393 9.13325348 -10.98450017 7.71567199 -9.59487915 6.29797363 C-8.73759216 5.45314423 -7.88030518 4.60831482 -6.99703979 3.73788452 C-6.24726868 2.98685455 -5.49749756 2.23582458 -4.7250061 1.46203613 C-2.49801636 -0.01651001 -2.49801636 -0.01651001 0 0 Z M-2.93087769 4.18930054 C-3.47510376 4.74400024 -4.01932983 5.29869995 -4.58004761 5.87020874 C-5.18268433 6.47929077 -5.78532104 7.0883728 -6.40621948 7.71591187 C-7.34884644 8.68367554 -7.34884644 8.68367554 -8.31051636 9.67098999 C-8.92733276 10.29682983 -9.54414917 10.92266968 -10.17965698 11.56747437 C-11.393582 12.7994599 -12.60577607 14.0331537 -13.81613159 15.26864624 C-16.92843537 18.44194015 -20.0610284 21.57563456 -23.31051636 24.60848999 C-25.83675423 26.8131129 -25.83675423 26.8131129 -25.49801636 29.98348999 C-26.48801636 29.98348999 -27.47801636 29.98348999 -28.49801636 29.98348999 C-33.78373384 33.43752319 -39.00984921 38.7459381 -42.49801636 43.98348999 C-42.94646489 48.10961614 -42.94646489 48.10961614 -39.99801636 50.73348999 C-39.17301636 51.47598999 -38.34801636 52.21848999 -37.49801636 52.98348999 C-33.68117409 51.42848018 -31.30605904 48.94753504 -28.49801636 45.98348999 C-24.68117409 47.5384998 -22.30605904 50.01944494 -19.49801636 52.98348999 C-15.68117409 51.42848018 -13.30605904 48.94753504 -10.49801636 45.98348999 C-6.68117409 47.5384998 -4.30605904 50.01944494 -1.49801636 52.98348999 C2.31882591 51.42848018 4.69394096 48.94753504 7.50198364 45.98348999 C11.31882591 47.5384998 13.69394096 50.01944494 16.50198364 52.98348999 C20.31882591 51.42848018 22.69394096 48.94753504 25.50198364 45.98348999 C29.31882591 47.5384998 31.69394096 50.01944494 34.50198364 52.98348999 C37.86790231 51.54095342 40.01245443 49.65084272 42.50198364 46.98348999 C41.19640865 43.45843752 39.11205255 41.75888591 36.21292114 39.46786499 C33.58166167 37.18503714 31.41395603 34.54016263 29.15823364 31.89364624 C27.81561934 30.34520663 26.38866934 28.87017569 24.93948364 27.42098999 C23.04984651 25.53135286 21.38320209 23.66189595 19.68948364 21.60848999 C16.86204924 18.25637704 13.72711378 15.45445 10.39260864 12.61630249 C7.34560513 9.98479946 4.5560082 7.11559044 1.81448364 4.17098999 C-0.08888168 2.44889756 -0.99135389 2.55711311 -2.93087769 4.18930054 Z " fill="#232731" transform="translate(50.498016357421875,16.016510009765625)"/>
<path d="M0 0 C4.53786224 2.26893112 5.94678157 4.09866534 9 8 C6.69 10.31 4.38 12.62 2 15 C-1.33901376 13.33049312 -2.59652305 12.50797594 -5 10 C-5.99 9.34 -6.98 8.68 -8 8 C-5.36 5.36 -2.72 2.72 0 0 Z " fill="#FDFDFD" transform="translate(58,45)"/>
<path d="M0 0 C4.53786224 2.26893112 5.94678157 4.09866534 9 8 C6.69 10.31 4.38 12.62 2 15 C-2.53786224 12.73106888 -3.94678157 10.90133466 -7 7 C-4.69 4.69 -2.38 2.38 0 0 Z " fill="#38BED4" transform="translate(67,54)"/>
<path d="M0 0 C4.53786224 2.26893112 5.94678157 4.09866534 9 8 C6.69 10.31 4.38 12.62 2 15 C-2.53786224 12.73106888 -3.94678157 10.90133466 -7 7 C-4.69 4.69 -2.38 2.38 0 0 Z " fill="#38BED4" transform="translate(49,54)"/>
<path d="M0 0 C4.53786224 2.26893112 5.94678157 4.09866534 9 8 C6.69 10.31 4.38 12.62 2 15 C-2.53786224 12.73106888 -3.94678157 10.90133466 -7 7 C-4.69 4.69 -2.38 2.38 0 0 Z " fill="#38BED4" transform="translate(31,54)"/>
<path d="M0 0 C4.53786224 2.26893112 5.94678157 4.09866534 9 8 C6.69 10.31 4.38 12.62 2 15 C-2.53786224 12.73106888 -3.94678157 10.90133466 -7 7 C-4.69 4.69 -2.38 2.38 0 0 Z " fill="#FDFDFD" transform="translate(40,45)"/>
<path d="M0 0 C4.53786224 2.26893112 5.94678157 4.09866534 9 8 C6.69 10.31 4.38 12.62 2 15 C-2.53786224 12.73106888 -3.94678157 10.90133466 -7 7 C-4.69 4.69 -2.38 2.38 0 0 Z " fill="#F7B521" transform="translate(49,36)"/>
<path d="M0 0 C6.76923077 5.29230769 6.76923077 5.29230769 7.9375 8.875 C7.958125 9.57625 7.97875 10.2775 8 11 C4.55930376 13.29379749 3.27709699 14 -1 14 C-3.3382902 11.89768404 -5.04736849 9.48516737 -7 7 C-4.69 4.69 -2.38 2.38 0 0 Z " fill="#FBFBFC" transform="translate(76,45)"/>
<path d="M0 0 C4.63714903 1.46436285 4.63714903 1.46436285 6.3125 3.9375 C7 6 7 6 7 9 C5.6875 10.60546875 5.6875 10.60546875 4 12.1875 C3.443125 12.71730469 2.88625 13.24710938 2.3125 13.79296875 C1.879375 14.19128906 1.44625 14.58960938 1 15 C-2.36591866 13.55746343 -4.51047079 11.66735273 -7 9 C-5.44499019 5.18315774 -2.96404505 2.80804268 0 0 Z " fill="#FCFCFB" transform="translate(23,45)"/>
<path d="M0 0 C5.46875 4.296875 5.46875 4.296875 7 6 C7 10 7 10 4.5 12.75 C3.675 13.4925 2.85 14.235 2 15 C-2.2742558 13.4169423 -4.26531794 10.49431596 -7 7 C-4.69 4.69 -2.38 2.38 0 0 Z " fill="#38BED4" transform="translate(85,54)"/>
<path d="M0 0 C1.17539996 0.92652701 2.34010577 1.86663387 3.5 2.8125 C4.1496875 3.33457031 4.799375 3.85664062 5.46875 4.39453125 C7 6 7 6 7 9 C5.6875 10.60546875 5.6875 10.60546875 4 12.1875 C3.443125 12.71730469 2.88625 13.24710938 2.3125 13.79296875 C1.879375 14.19128906 1.44625 14.58960937 1 15 C-2.36591866 13.55746343 -4.51047079 11.66735273 -7 9 C-5.44499019 5.18315774 -2.96404505 2.80804268 0 0 Z " fill="#38BED3" transform="translate(14,54)"/>
<path d="M0 0 C5.46875 4.296875 5.46875 4.296875 7 6 C7 10 7 10 4.5 12.75 C3.675 13.4925 2.85 14.235 2 15 C-2.2742558 13.4169423 -4.26531794 10.49431596 -7 7 C-4.69 4.69 -2.38 2.38 0 0 Z " fill="#F6B421" transform="translate(67,36)"/>
<path d="M0 0 C1.17539996 0.92652701 2.34010577 1.86663387 3.5 2.8125 C4.1496875 3.33457031 4.799375 3.85664062 5.46875 4.39453125 C7 6 7 6 7 9 C5.6875 10.60546875 5.6875 10.60546875 4 12.1875 C3.443125 12.71730469 2.88625 13.24710938 2.3125 13.79296875 C1.879375 14.19128906 1.44625 14.58960938 1 15 C-2.36591866 13.55746343 -4.51047079 11.66735273 -7 9 C-5.44499019 5.18315774 -2.96404505 2.80804268 0 0 Z " fill="#F6B421" transform="translate(32,36)"/>
<path d="M0 0 C5.46875 4.296875 5.46875 4.296875 7 6 C7 10 7 10 4.5 12.75 C3.675 13.4925 2.85 14.235 2 15 C-2.2742558 13.4169423 -4.26531794 10.49431596 -7 7 C-4.69 4.69 -2.38 2.38 0 0 Z " fill="#FCFCFC" transform="translate(58,27)"/>
<path d="M0 0 C1.17539996 0.92652701 2.34010577 1.86663387 3.5 2.8125 C4.1496875 3.33457031 4.799375 3.85664063 5.46875 4.39453125 C7 6 7 6 7 9 C5.6875 10.60546875 5.6875 10.60546875 4 12.1875 C3.443125 12.71730469 2.88625 13.24710938 2.3125 13.79296875 C1.879375 14.19128906 1.44625 14.58960938 1 15 C-2.36591866 13.55746343 -4.51047079 11.66735273 -7 9 C-5.44499019 5.18315774 -2.96404505 2.80804268 0 0 Z " fill="#FCFCFC" transform="translate(41,27)"/>
<path d="M0 0 C3.36591866 1.44253657 5.51047079 3.33264727 8 6 C6.55746343 9.36591866 4.66735273 11.51047079 2 14 C-1.36591866 12.55746343 -3.51047079 10.66735273 -6 8 C-4.55746343 4.63408134 -2.66735273 2.48952921 0 0 Z " fill="#38BED4" transform="translate(49,19)"/>
</svg>
